<svg t="1720513165385" class="icon" viewBox="0 0 1024 1024" version="1.1" xmlns="http://www.w3.org/2000/svg" p-id="35325" width="128" height="128"><path d="M512 512m-512 0a512 512 0 1 0 1024 0 512 512 0 1 0-1024 0Z" fill="#2BCF7D" p-id="35326"></path><path d="M341.282 213c40.251 0 74.611 25.521 88.135 61.443l208.458 0.001c76.874 0 139.125 62.92 139.125 140.452 0 75.63-59.3 137.54-133.84 140.352l-2.263 0.067-0.185 0.003-2.653 0.03h-53.373c-13.134 36.688-47.877 62.903-88.672 62.903-40.626 0-75.251-26-88.508-62.45h-21.284c-39.268 0-71.168 32.243-71.168 72.101 0 38.739 30.18 70.404 68.086 72.036l1.15 0.04-0.079-0.003 2.169 0.029 269.973-0.001v-42.192l97.661 76.594L656.354 811l-0.001-42.647H386.222c-76.106 0-137.88-61.667-139.107-138.13l-0.019-2.32c0-75.632 59.3-137.54 133.84-140.353l2.264-0.067 0.185-0.003 2.652-0.03h22.404c13.897-35.152 47.869-59.985 87.573-59.985 39.534 0 73.385 24.62 87.393 59.532h54.468c39.267 0 71.168-32.243 71.168-72.101 0-38.739-30.181-70.404-68.086-72.036l-1.151-0.04 0.076 0.003-2.096-0.028h-208.54c-13.641 35.683-47.882 60.99-87.964 60.99-52.07 0-94.282-42.708-94.282-95.392S289.211 213 341.282 213z m154.732 262.162c-26.035 0-47.14 21.354-47.14 47.696s21.105 47.696 47.14 47.696 47.141-21.354 47.141-47.696-21.106-47.696-47.14-47.696zM341.618 260.528c-26.035 0-47.14 21.354-47.14 47.696s21.105 47.697 47.14 47.697 47.14-21.355 47.14-47.697c0-26.342-21.105-47.696-47.14-47.696z" fill="#FFFFFF" p-id="35327"></path></svg>
