<svg t="1720688637218" class="icon" viewBox="0 0 1024 1024" version="1.1" xmlns="http://www.w3.org/2000/svg" p-id="1853"
     width="128" height="128">
    <path d="M371.8 269.9l-28-4.3c-5.5-0.6-9.7-3.7-12.2-8.5l-12.8-25.6c-2.4-5.5-7.9-9.1-14-9.1-5.5 0-11.6 3.7-14 9.1L278 257.1c-2.4 4.3-6.7 7.9-12.2 8.5l-28 4.3c-6.1 1.2-11 4.9-12.8 11-1.8 6.1 0 12.2 4.3 16.4l20.1 19.5c4.3 3.7 5.5 8.5 4.9 14l-4.9 28c-1.2 6.1 1.2 12.2 6.1 15.8s11.6 4.3 17.1 1.2l25-13.4c4.9-2.4 10.4-2.4 15.2 0l3.7 1.8 21.3 11c5.5 3 12.2 2.4 17.1-1.2 4.9-3.7 7.3-9.7 6.1-15.2l-4.9-28v-3.7c0.6-3.7 2.4-7.3 4.9-9.7l20.1-20.1c4.3-4.3 5.5-11 3.7-16.4-2-6.1-6.9-9.8-13-11z"
          fill="#3399FF" p-id="1854" data-spm-anchor-id="a313x.search_index.0.i3.18e93a81ZKERDU"
          class="selected"></path>
    <path d="M729.8 63.9H131.2c-36.7 0.1-66.3 29.7-66.5 66.4v698.4c0 36.7 29.7 66.4 66.5 66.5h324.5c-38.1-53.3-58.5-117.5-58.4-182.9 0-174.5 141.5-316 315.9-316 28.1 0 55.9 3.8 83.2 11.2V130.3c0-36.7-29.7-66.3-66.6-66.4z m-472.1 712c-6 10.4-17.1 16.7-29.2 16.5h-66.6c-11.9 0.1-23.2-6-29.3-16.5-6-10.4-6-23.2 0-33.6 6-10.4 17.3-16.6 29.3-16.5h66.5c11.9-0.1 23.2 6 29.3 16.5 6 10.4 6 23.2 0 33.6z m37.6-116.7H162.2c-18.4 0-33.3-14.9-33.3-33.3 0.3-18.5 14.9-33.3 33.3-33.3h133.1c18.4 0 33.3 14.9 33.3 33.3 0 18.3-15 33.3-33.3 33.3z m180-463.6v56.6c0 24.4-2.4 48.7-7.3 72.5-27.4 123-122.4 156.5-152.9 163.8-4.9 1.2-8.5 1.8-9.1 1.8-1.8 0.6-3 0.6-4.9 0.6-1.8 0-3-0.6-4.9-0.6-6.7-1.2-168.1-28-168.1-238.1v-56.6c0-6.1 3-12.8 8.5-16.4 4.9-3.7 11-6.1 17.7-6.1h13.4c17.7 0 35.9-1.2 53.6-4.9 31.1-6.7 63.3-35.9 64.6-36.5 9.1-4.9 20.7-4.9 29.8 0 9.1 5.5 39.6 31.1 66.4 36.5 17.7 3 35.9 4.9 53.6 4.9h13.4c6.7 0 12.8 1.8 18.3 6.1 4.9 3.6 8.6 9.7 7.9 16.4z"
          fill="#3399FF" p-id="1855" data-spm-anchor-id="a313x.search_index.0.i2.18e93a81ZKERDU"
          class="selected"></path>
    <path d="M463.3 712.5c0 137.7 111.7 249.4 249.4 249.4s249.4-111.7 249.4-249.4-111.7-249.4-249.4-249.4-249.4 111.6-249.4 249.4z"
          fill="#3399FF" p-id="1856" data-spm-anchor-id="a313x.search_index.0.i4.18e93a81ZKERDU"
          class="selected"></path>
    <path d="M853.9 636.9c12.8 12.8 13.9 33.1 2.7 47.3l-2.7 3.1-126 125.9c-12.8 12.8-33.1 14-47.3 2.8l-3.1-2.8-75.5-75.5c-13.7-13.3-14.6-35-1.9-49.3s34.4-16 49.2-3.9l3.1 2.8 50.4 50.3 100.8-100.7c12.8-12.8 33.1-14 47.3-2.8l3 2.8z"
          fill="#FFFFFF" p-id="1857"></path>
</svg>
